<svg width="521" height="203" viewBox="0 0 521 203" fill="none" xmlns="http://www.w3.org/2000/svg">
<g filter="url(#filter0_d_16_670)">
<mask id="path-1-inside-1_16_670" fill="white">
<path fill-rule="evenodd" clip-rule="evenodd" d="M110.071 194.063C109.43 194.074 108.787 194.079 108.143 194.079C50.6263 194.079 4 150.651 4 97.0791C4 43.5075 50.6263 0.0791016 108.143 0.0791016C108.787 0.0791016 109.43 0.0845502 110.071 0.0954006V0.0791016H412.857C470.374 0.0791016 517 43.5075 517 97.0791C517 150.651 470.374 194.079 412.857 194.079H110.071V194.063Z"/>
</mask>
<path d="M110.071 194.063H113.071V191.012L110.021 191.063L110.071 194.063ZM110.071 0.0954006L110.021 3.09497L113.071 3.14658V0.0954006H110.071ZM110.071 0.0791016V-2.9209H107.071V0.0791016H110.071ZM110.071 194.079H107.071V197.079H110.071V194.079ZM108.143 197.079C108.804 197.079 109.464 197.074 110.122 197.062L110.021 191.063C109.396 191.074 108.77 191.079 108.143 191.079V197.079ZM1 97.0791C1 152.505 49.1738 197.079 108.143 197.079V191.079C52.0789 191.079 7 148.797 7 97.0791H1ZM108.143 -2.9209C49.1738 -2.9209 1 41.6534 1 97.0791H7C7 45.3615 52.0789 3.0791 108.143 3.0791V-2.9209ZM110.122 -2.90417C109.464 -2.91531 108.804 -2.9209 108.143 -2.9209V3.0791C108.77 3.0791 109.396 3.08441 110.021 3.09497L110.122 -2.90417ZM113.071 0.0954006V0.0791016H107.071V0.0954006H113.071ZM110.071 3.0791H412.857V-2.9209H110.071V3.0791ZM520 97.0791C520 41.6534 471.826 -2.9209 412.857 -2.9209V3.0791C468.921 3.0791 514 45.3615 514 97.0791H520ZM412.857 197.079C471.826 197.079 520 152.505 520 97.0791H514C514 148.797 468.921 191.079 412.857 191.079V197.079ZM412.857 191.079H110.071V197.079H412.857V191.079ZM113.071 194.079V194.063H107.071V194.079H113.071Z" fill="white" mask="url(#path-1-inside-1_16_670)"/>
</g>
<defs>
<filter id="filter0_d_16_670" x="0" y="0.0791016" width="521" height="202" filterUnits="userSpaceOnUse" color-interpolation-filters="sRGB">
<feFlood flood-opacity="0" result="BackgroundImageFix"/>
<feColorMatrix in="SourceAlpha" type="matrix" values="0 0 0 0 0 0 0 0 0 0 0 0 0 0 0 0 0 0 127 0" result="hardAlpha"/>
<feOffset dy="4"/>
<feGaussianBlur stdDeviation="2"/>
<feComposite in2="hardAlpha" operator="out"/>
<feColorMatrix type="matrix" values="0 0 0 0 0 0 0 0 0 0 0 0 0 0 0 0 0 0 0.25 0"/>
<feBlend mode="normal" in2="BackgroundImageFix" result="effect1_dropShadow_16_670"/>
<feBlend mode="normal" in="SourceGraphic" in2="effect1_dropShadow_16_670" result="shape"/>
</filter>
</defs>
</svg>
