<svg width="513" height="194" viewBox="0 0 513 194" fill="none" xmlns="http://www.w3.org/2000/svg">
<mask id="path-1-inside-1_16_676" fill="white">
<path fill-rule="evenodd" clip-rule="evenodd" d="M106.071 193.984C105.43 193.995 104.787 194 104.143 194C46.6263 194 0 150.572 0 97C0 43.4284 46.6263 0 104.143 0C104.787 0 105.43 0.0054486 106.071 0.016299V0H408.857C466.374 0 513 43.4284 513 97C513 150.572 466.374 194 408.857 194H106.071V193.984Z"/>
</mask>
<path d="M106.071 193.984H109.071V190.933L106.021 190.984L106.071 193.984ZM106.071 0.016299L106.021 3.01587L109.071 3.06747V0.016299H106.071ZM106.071 0V-3H103.071V0H106.071ZM106.071 194H103.071V197H106.071V194ZM104.143 197C104.804 197 105.464 196.994 106.122 196.983L106.021 190.984C105.396 190.995 104.77 191 104.143 191V197ZM-3 97C-3 152.426 45.1738 197 104.143 197V191C48.0789 191 3 148.718 3 97H-3ZM104.143 -3C45.1738 -3 -3 41.5743 -3 97H3C3 45.2824 48.0789 3 104.143 3V-3ZM106.122 -2.98327C105.464 -2.99441 104.804 -3 104.143 -3V3C104.77 3 105.396 3.00531 106.021 3.01587L106.122 -2.98327ZM109.071 0.016299V0H103.071V0.016299H109.071ZM106.071 3H408.857V-3H106.071V3ZM516 97C516 41.5743 467.826 -3 408.857 -3V3C464.921 3 510 45.2824 510 97H516ZM408.857 197C467.826 197 516 152.426 516 97H510C510 148.718 464.921 191 408.857 191V197ZM408.857 191H106.071V197H408.857V191ZM109.071 194V193.984H103.071V194H109.071Z" fill="white" mask="url(#path-1-inside-1_16_676)"/>
</svg>
